PathFileType	4	(X/Y/Z)	Run_400 02
DataRate	CameraRate	NumFrames	NumMarkers	Units	OrigDataRate	OrigDataStartFrame	OrigNumFrames
100	100	4	42	mm	100	53	128
Frame#	Time	LASI			RASI			LPSI			RPSI			RTH1			RTH3			LTH1			LTH2			LTH3			RTB1			RTB2			LTB1			LTB2			RCAL			RTOE			LCAL			LTOE			LACR			RACR			CLAV			C7			RUA1			RUA2			RUA3			RLEL			RMEL			LUA1			LUA2			LUA3			LLEL			LMEL			RFAsuperior			RFAradius			RFAulna			LFAsuperior			LFAradius			LFAulna			RTH2			RTB3			RMT5			LMT5			LTB3			
		X1	Y1	Z1	X2	Y2	Z2	X3	Y3	Z3	X4	Y4	Z4	X5	Y5	Z5	X6	Y6	Z6	X7	Y7	Z7	X8	Y8	Z8	X9	Y9	Z9	X10	Y10	Z10	X11	Y11	Z11	X12	Y12	Z12	X13	Y13	Z13	X14	Y14	Z14	X15	Y15	Z15	X16	Y16	Z16	X17	Y17	Z17	X18	Y18	Z18	X19	Y19	Z19	X20	Y20	Z20	X21	Y21	Z21	X22	Y22	Z22	X23	Y23	Z23	X24	Y24	Z24	X25	Y25	Z25	X26	Y26	Z26	X27	Y27	Z27	X28	Y28	Z28	X29	Y29	Z29	X30	Y30	Z30	X31	Y31	Z31	X32	Y32	Z32	X33	Y33	Z33	X34	Y34	Z34	X35	Y35	Z35	X36	Y36	Z36	X37	Y37	Z37	X38	Y38	Z38	X39	Y39	Z39	X40	Y40	Z40	X41	Y41	Z41	X42	Y42	Z42	

50	0.68	764.359641	986.091691	-460.545699	773.703472	1004.61676	-211.522315	589.934514	1077.296493	-372.367086	589.241823	1076.06737	-288.080319	754.5161890000001	885.273595	-144.354265	873.800655	685.6297510000001	-164.972464	677.236036	874.654596	-513.4563910000001	721.831735	749.016632	-488.006838	614.754072	628.939939	-470.189822	855.6106	494.664013	-235.72767	743.806574	486.56752	-184.837485	595.746707	397.410459	-393.967626	501.004292	355.23566	-449.684016	488.488222	464.524253	-266.316245	602.071008	260.370504	-266.762502	286.302861	154.473499	-327.992039	496.121931	66.85337199999999	-354.691204	789.426839	1508.184659	-517.44219	727.365628	1520.913524	-178.341016	826.853671	1475.112705	-309.018337	695.017455	1549.510997	-371.911425	639.712101	1440.077544	-95.60601800000001	555.319556	1382.683175	-129.696586	569.695293	1350.064964	-59.320907	526.774169	1267.228332	-23.677879	494.877717	1251.901462	-97.77477399999999	775.338991	1407.872165	-618.407094	714.141802	1323.08503	-629.272103	776.43951	1299.848447	-673.612253	796.071237	1220.706522	-711.192186	735.57186	1176.517786	-681.685752	559.898088	1191.253442	-17.695265	705.944435	1059.868355	-76.464806	647.894015	1024.788256	-55.068019	882.396824	1175.614467	-628.619139	939.747228	1191.215541	-483.954032	941.7815859999999	1126.798009	-506.870465	879.301211	805.461626	-162.356687	670.646732	418.561779	-247.211432	558.716663	268.496073	-181.710981	445.287764	48.527401	-430.464784	473.653056	231.399184	-365.967482	
51	0.6899999999999999	765.54387	991.0872450000001	-460.726021	774.669896	1015.714928	-212.200847	591.489011	1084.695031	-373.031968	590.812555	1085.073322	-289.125992	758.116671	897.319805	-144.423437	879.630577	698.964094	-167.443301	672.845287	881.294463	-512.806526	712.216638	754.566092	-489.042939	597.2153530000001	640.227545	-470.407527	873.80137	500.594901	-236.429814	762.957036	482.174605	-185.770389	569.3497170000001	408.809995	-397.736612	472.633175	369.900393	-452.748557	510.856931	432.097091	-266.718528	646.843621	242.181318	-266.361234	259.50911	172.976155	-332.891172	457.903952	66.97115100000001	-355.360368	792.945161	1517.542859	-514.582856	724.2898269999999	1530.357689	-178.378666	826.305845	1484.388885	-306.499078	695.7854129999999	1557.630272	-371.945356	633.715161	1452.662905	-97.176637	549.891524	1395.377472	-133.133201	562.156341	1364.153767	-60.963165	516.859201	1282.38409	-25.787044	486.140568	1267.113223	-100.577173	781.94383	1416.703694	-615.866478	722.252584	1331.518671	-627.924176	785.963606	1308.215765	-669.507224	806.438015	1228.717359	-706.44895	746.390263	1183.818337	-676.374016	549.442272	1206.324143	-18.916858	695.172645	1073.341262	-74.588955	636.4065880000001	1038.804093	-54.008418	892.7679450000001	1190.404763	-621.042925	946.270116	1213.997099	-475.942042	952.2597940000001	1149.121016	-496.641503	883.222155	820.083014	-162.359391	696.147071	406.123609	-247.113753	602.380985	245.612637	-181.128361	406.614741	49.446942	-430.712882	446.884146	243.044175	-372.672755	
52	0.7	767.194837	997.016138	-461.278632	775.729312	1026.435719	-212.44564	593.825519	1092.356737	-374.038198	593.098931	1093.636419	-290.348405	761.408547	909.6786499999999	-144.951428	883.591286	710.787248	-169.604708	669.614579	888.707736	-512.502354	703.134554	760.534249	-489.965896	581.3480929999999	652.512102	-470.781182	890.557966	505.209392	-237.321851	781.981197	476.145707	-186.642753	545.604647	421.272392	-401.43842	447.455152	385.415779	-455.889425	536.153921	399.117075	-266.67319	692.249883	225.377472	-267.556895	238.0445	193.845966	-338.054669	421.892139	67.22286200000001	-356.183788	795.9807949999999	1526.844074	-511.399087	721.600108	1539.638757	-178.377454	825.715147	1493.653511	-304.088746	696.616833	1565.735885	-371.751411	628.51779	1464.824141	-99.17445499999999	545.187261	1408.57642	-136.336564	555.494991	1378.122396	-62.67679	507.708054	1297.208463	-28.193145	478.404227	1282.10562	-103.879968	787.984581	1425.881196	-613.1560459999999	729.662423	1340.489358	-626.140118	794.488648	1317.285092	-665.764449	815.999864	1237.183086	-702.030409	756.494593	1191.770311	-671.870506	539.738157	1221.158111	-20.471269	685.500822	1086.783098	-72.966339	625.980053	1052.612641	-53.509426	901.63007	1205.458577	-613.9608950000001	950.7484449999999	1236.674296	-468.65191	960.063081	1171.567276	-486.805002	885.973785	832.659885	-162.51079	723.274364	393.111915	-247.526834	647.85722	223.117351	-182.486766	369.540397	51.490817	-431.122346	424.110088	255.341799	-380.083794	
53	0.71	769.067996	1003.659012	-461.698818	776.8153600000001	1035.825253	-212.815274	596.8663749999999	1100.15976	-375.352554	595.467998	1101.650235	-291.347793	764.040134	921.585321	-145.687564	885.439618	720.694964	-171.690534	667.442106	896.414134	-512.741701	694.689489	766.626293	-491.034939	567.6098459999999	664.847784	-471.359855	905.792654	508.625527	-238.548283	800.9330670000001	468.669952	-187.66793	525.266607	433.962178	-404.764823	426.37709	400.662987	-458.937978	564.215029	365.967854	-266.434728	737.975417	209.989856	-270.074913	221.599315	216.803833	-343.437506	388.756765	68.49273100000001	-358.019138	798.490222	1535.671941	-507.814323	719.439668	1548.397158	-178.347277	825.037868	1502.454289	-301.811324	697.561627	1573.493143	-371.346973	624.209112	1476.286708	-101.304596	541.147194	1422.141735	-139.015799	549.643505	1391.671594	-64.39825500000001	499.410482	1311.39925	-30.774482	471.608841	1296.569497	-107.507065	793.4033460000001	1434.987647	-610.140814	736.149483	1349.514606	-624.248631	801.939869	1326.509626	-662.5261850000001	824.693553	1245.921111	-698.123798	765.89825	1199.878983	-668.163855	530.615736	1235.280575	-22.233937	676.8910540000001	1099.83381	-71.519103	616.646029	1065.910815	-53.597211	909.073667	1220.34899	-607.3762359999999	953.438208	1258.602247	-462.105004	965.512982	1193.253862	-477.504143	887.378981	841.89838	-163.496905	751.321739	379.831103	-248.436118	694.93152	201.555845	-185.471673	334.114335	55.685037	-431.686164	404.654335	268.007257	-386.891261	
